SplineFontDB: 3.2
FontName: Clique
FullName: Clique
FamilyName: Clique
Weight: Regular
Copyright: Copyright (c) 2024, Matt Troutman
UComments: "2024-7-12: Created with FontForge (http://fontforge.org)+AAoA-Based on Clique Alphabet by Grace J.S.+AAoACgAA-for all twenty +APgA-ne pil+APgA-ts fans"
FontLog: "Currently maintained by Matt Troutman https://github.com/trtmn+AAoA"
Version: 1.02
FONDName: Clique
ItalicAngle: 0
UnderlinePosition: -130
UnderlineWidth: 65
Ascent: 1100
Descent: 200
InvalidEm: 0
woffMajor: 1
woffMinor: 1
LayerCount: 2
Layer: 0 0 "Back" 1
Layer: 1 0 "Fore" 0
XUID: [1021 643 175353993 5164247]
StyleMap: 0x0000
FSType: 0
OS2Version: 0
OS2_WeightWidthSlopeOnly: 0
OS2_UseTypoMetrics: 1
CreationTime: 1720819814
ModificationTime: 1721703077
PfmFamily: 17
TTFWeight: 400
TTFWidth: 5
LineGap: 117
VLineGap: 0
OS2TypoAscent: 0
OS2TypoAOffset: 1
OS2TypoDescent: 0
OS2TypoDOffset: 1
OS2TypoLinegap: 117
OS2WinAscent: 0
OS2WinAOffset: 1
OS2WinDescent: 0
OS2WinDOffset: 1
HheadAscent: 0
HheadAOffset: 1
HheadDescent: 0
HheadDOffset: 1
OS2Vendor: 'PfEd'
MarkAttachClasses: 1
DEI: 91125
LangName: 1033
Encoding: ISO8859-1
Compacted: 1
UnicodeInterp: none
NameList: AGL For New Fonts
DisplaySize: -48
AntiAlias: 1
FitToEm: 0
WinInfo: 0 19 6
BeginPrivate: 0
EndPrivate
TeXData: 1 0 0 346030 173015 115343 0 1048576 115343 783286 444596 497025 792723 393216 433062 380633 303038 157286 324010 404750 52429 2506097 1059062 262144
BeginChars: 256 54

StartChar: A
Encoding: 65 65 0
Width: 1430
Flags: W
TeX: 1300 32767
VStem: 1104 58<622.23 671.713> 1153 84<13.6604 382.34>
LayerCount: 2
Fore
SplineSet
1198 -10 m 0x40
 1187 -10 1171 -3 1165 3 c 0
 1156 12 1153 69 1153 198 c 0
 1153 327 1156 385 1165 394 c 0
 1171 400 1187 406 1198 406 c 0
 1209 406 1221 396 1226 383 c 0
 1231 370 1237 287 1237 198 c 0
 1237 109 1231 26 1226 13 c 0
 1221 0 1209 -10 1198 -10 c 0x40
1032 13 m 0
 1019 11 964 59 873 139 c 0
 796 208 673 319 597 386 c 0
 521 453 403 563 327 629 c 0
 251 695 182 762 171 776 c 0
 153 800 153 804 168 819 c 0
 177 828 191 834 200 832 c 0
 209 830 270 778 336 720 c 0
 402 662 510 566 576 506 c 0
 642 446 755 344 828 279 c 0
 901 214 987 138 1018 108 c 0
 1068 62 1075 51 1064 36 c 0
 1058 25 1043 14 1032 13 c 0
990 376 m 0
 979 376 953 391 929 409 c 0
 905 427 871 459 851 480 c 0
 831 501 788 540 753 568 c 0
 718 596 676 632 659 650 c 0
 642 668 603 702 575 728 c 0
 547 754 495 800 461 828 c 0
 427 856 385 895 368 912 c 0
 351 929 316 959 291 979 c 0
 266 999 242 1022 237 1033 c 0
 231 1045 230 1061 238 1075 c 0
 246 1089 256 1092 268 1090 c 0
 279 1088 306 1070 328 1049 c 0
 350 1028 394 991 422 966 c 0
 450 941 586 822 721 700 c 0
 866 569 972 481 981 483 c 0
 989 485 1016 523 1040 564 c 0
 1064 605 1093 650 1104 661 c 0
 1119 676 1126 681 1140 672 c 0
 1151 666 1160 652 1162 641 c 0x80
 1164 630 1153 606 1139 585 c 0
 1125 564 1099 518 1081 481 c 0
 1063 444 1038 406 1027 395 c 0
 1016 384 1001 376 990 376 c 0
EndSplineSet
EndChar

StartChar: B
Encoding: 66 66 1
Width: 1272
Flags: W
HStem: 585 76<632.524 736.41>
VStem: 118 81<181.283 681.301> 632 106<586.802 653.574> 957 126<733.87 787.287> 1078 96<44.579 519.234>
LayerCount: 2
Fore
SplineSet
160 28 m 0xf0
 151 28 136 37 128 46 c 0
 117 58 116 179 118 474 c 0
 120 847 123 887 141 899 c 0
 156 910 167 907 188 889 c 0
 202 876 218 858 222 847 c 0
 226 836 263 781 303 720 c 0
 343 659 392 589 409 563 c 0
 426 537 457 491 479 457 c 0
 501 423 543 361 573 320 c 0
 603 279 635 227 647 206 c 0
 659 185 675 168 681 168 c 0
 687 168 708 197 723 234 c 0
 738 271 770 329 785 366 c 0
 800 403 833 471 855 518 c 0
 877 565 923 658 957 730 c 0
 1014 852 1021 860 1051 858 c 0
 1079 856 1084 849 1083 818 c 0
 1082 798 1060 741 1034 691 c 0
 1008 641 983 590 981 577 c 0
 979 564 950 504 922 444 c 0
 894 384 851 296 827 246 c 0
 803 196 776 139 765 115 c 0
 754 91 731 65 714 54 c 0
 686 39 680 39 645 66 c 0
 624 81 561 171 498 264 c 0
 435 357 383 438 381 446 c 0
 379 454 358 480 338 506 c 0
 318 532 294 567 283 584 c 0
 272 601 255 631 242 652 c 0
 229 673 214 691 209 691 c 0
 204 691 199 553 199 384 c 0
 199 194 195 67 187 53 c 0
 181 40 169 28 160 28 c 0xf0
1132 34 m 0
 1124 32 1109 39 1098 51 c 0
 1081 71 1078 106 1078 297 c 0
 1078 454 1082 522 1093 533 c 0
 1101 541 1117 547 1129 547 c 0
 1141 547 1156 535 1162 520 c 0
 1168 505 1174 404 1174 295 c 0xe8
 1175 156 1172 87 1161 66 c 0
 1152 51 1140 36 1132 34 c 0
345 102 m 0
 341 102 329 109 317 115 c 0
 305 121 294 134 294 143 c 0
 294 152 307 168 320 180 c 0
 344 202 346 202 371 177 c 0
 396 152 396 150 374 126 c 0
 362 113 349 102 345 102 c 0
693 585 m 0
 665 583 643 588 632 600 c 0
 623 611 623 627 625 636 c 0
 627 645 645 657 662 661 c 0
 679 665 706 662 719 654 c 0
 734 645 740 630 738 615 c 0
 736 594 727 587 693 585 c 0
EndSplineSet
EndChar

StartChar: C
Encoding: 67 67 2
Width: 1266
Flags: W
VStem: 716 113<81.8094 254.031 503.256 655.467>
LayerCount: 2
Fore
SplineSet
786 70 m 0
 768 70 745 78 734 89 c 0
 722 101 716 155 716 232 c 0
 716 357 716 358 608 428 c 0
 548 467 486 501 471 505 c 0
 454 509 416 489 366 450 c 0
 319 412 274 389 256 391 c 0
 235 393 222 409 220 436 c 0
 216 468 229 485 285 525 c 0
 323 552 353 579 353 585 c 0
 353 591 318 621 274 648 c 0
 230 675 174 717 149 739 c 0
 111 773 106 782 120 806 c 0
 131 823 153 832 178 831 c 0
 200 830 237 813 259 795 c 0
 281 777 336 740 379 713 c 0
 458 662 458 661 516 704 c 0
 548 728 601 770 632 797 c 0
 663 824 702 849 722 853 c 0
 748 858 764 849 777 824 c 0
 794 793 791 785 744 746 c 0
 716 722 664 683 627 658 c 0
 590 633 567 605 569 596 c 0
 571 587 588 572 603 563 c 0
 618 554 647 534 664 520 c 0
 681 506 700 498 705 503 c 0
 710 508 716 542 716 576 c 0
 716 610 723 645 734 656 c 0
 745 667 766 675 786 675 c 0
 816 675 822 667 824 611 c 0
 825 576 828 518 829 481 c 0
 830 444 842 409 854 398 c 0
 866 387 914 350 962 318 c 0
 1010 286 1067 249 1089 236 c 0
 1111 223 1136 201 1145 188 c 0
 1157 170 1154 158 1140 141 c 0
 1129 128 1105 116 1085 116 c 0
 1065 116 1027 134 1000 158 c 0
 973 182 929 216 903 234 c 0
 865 260 853 262 840 247 c 0
 831 236 827 213 832 195 c 0
 837 177 834 143 829 117 c 0
 821 82 811 70 786 70 c 0
EndSplineSet
EndChar

StartChar: D
Encoding: 68 68 3
Width: 1071
Flags: W
HStem: 603 107<428.726 698.535> 896 20G<174.5 189.5>
VStem: 115 125<235.908 821.521> 837 105<256.531 789.625>
LayerCount: 2
Fore
SplineSet
176 12 m 0
 156 8 142 21 131 48 c 0
 122 72 115 257 115 483 c 0
 115 769 122 885 135 898 c 0
 146 909 167 916 182 916 c 0
 197 916 218 900 227 880 c 0
 236 860 242 764 241 665 c 0
 240 566 239 428 240 356 c 0
 241 252 246 226 264 230 c 0
 276 232 346 296 420 369 c 0
 513 461 565 502 591 502 c 0
 621 502 647 476 713 378 c 0
 759 309 803 255 812 256 c 0
 821 257 832 375 837 552 c 0
 845 846 844 846 891 846 c 0
 938 846 937 846 942 470 c 0
 944 263 941 85 933 72 c 0
 925 59 898 45 872 43 c 0
 831 39 817 47 764 119 c 0
 730 165 686 226 664 256 c 0
 642 286 613 318 599 327 c 0
 579 340 560 333 517 298 c 0
 486 273 403 199 333 134 c 0
 263 69 191 14 176 12 c 0
573 603 m 0
 484 603 443 611 430 626 c 0
 416 643 415 656 428 681 c 0
 443 711 457 714 565 710 c 0
 654 706 688 700 700 680 c 0
 709 666 711 643 706 629 c 0
 698 608 673 603 573 603 c 0
EndSplineSet
EndChar

StartChar: E
Encoding: 69 69 4
Width: 1028
Flags: W
VStem: 792.329 111.211<113.422 535.806>
LayerCount: 2
Fore
SplineSet
1767.95800781 -168.475585938 m 1024
401.583984375 85.5947265625 m 0
 386.322265625 86.2158203125 356.271484375 93.7978515625 334.8046875 102.444335938 c 0
 313.337890625 111.091796875 284.1484375 136.62890625 269.939453125 159.193359375 c 0
 255.728515625 181.7578125 233.224609375 220.25390625 219.927734375 244.739257812 c 0
 206.6328125 269.225585938 181.729492188 310.53125 164.588867188 336.529296875 c 0
 147.448242188 362.528320312 133.424804688 404.8515625 133.424804688 430.581054688 c 0
 133.424804688 456.3125 144.819335938 481.736328125 158.74609375 487.081054688 c 0
 172.671875 492.42578125 199.674804688 488.444335938 218.752929688 478.233398438 c 0
 237.830078125 468.024414062 266.39453125 432.3671875 282.23046875 398.999023438 c 0
 298.064453125 365.62890625 327.151367188 319.2734375 346.865234375 295.985351562 c 0
 382.711914062 253.643554688 382.711914062 253.643554688 422.793945312 306.892578125 c 0
 444.838867188 336.1796875 488.059570312 393.219726562 518.837890625 433.646484375 c 0
 549.6171875 474.075195312 603.362304688 550.284179688 638.272460938 603.000976562 c 0
 673.180664062 655.717773438 718.728515625 720.88671875 739.486328125 747.822265625 c 0
 760.245117188 774.756835938 792.2734375 796.794921875 810.66015625 796.794921875 c 0
 829.046875 796.794921875 857.680664062 778.763671875 874.290039062 756.725585938 c 0
 899.90625 722.735351562 904.344726562 672.678710938 903.540039062 426.7578125 c 0
 903.01953125 267.313476562 898.069335938 125.0703125 892.540039062 110.662109375 c 0
 887.010742188 96.25390625 867.065429688 84.4658203125 848.217773438 84.4658203125 c 0
 829.369140625 84.4658203125 809.083984375 97.1416015625 803.138671875 112.634765625 c 0
 797.192382812 128.127929688 792.329101562 227.826171875 792.329101562 334.186523438 c 0
 792.329101562 440.546875 784.6015625 532.344726562 775.158203125 538.180664062 c 0
 765.715820312 544.017578125 736.428710938 514.639648438 710.078125 472.8984375 c 0
 683.727539062 431.15625 633.354492188 359.328125 598.139648438 313.279296875 c 0
 562.922851562 267.229492188 510.534179688 196.908203125 481.720703125 157.009765625 c 0
 452.907226562 117.110351562 416.845703125 84.9736328125 401.583984375 85.5947265625 c 0
EndSplineSet
EndChar

StartChar: F
Encoding: 70 70 5
Width: 1019
Flags: W
HStem: 912.446 20G<769.397 805.891>
VStem: 553.674 105.351<196.121 527.787> 771.989 107.71<413.474 764.135>
LayerCount: 2
Fore
SplineSet
605.572265625 164.9765625 m 0
 594.0078125 164.9765625 577.838867188 173.787109375 569.638671875 184.5546875 c 0
 561.439453125 195.323242188 554.255859375 278.138671875 553.673828125 368.590820312 c 0
 553.036132812 467.850585938 546.364257812 533.048828125 536.844726562 533.048828125 c 0
 528.168945312 533.048828125 490.439453125 498.376953125 453 456 c 0
 415.560546875 413.624023438 367.307617188 359.837890625 345.771484375 336.475585938 c 0
 324.235351562 313.11328125 276.268554688 267.318359375 239.177734375 234.708984375 c 0
 171.740234375 175.420898438 171.740234375 175.420898438 138.794921875 208.365234375 c 0
 105.848632812 241.310546875 105.848632812 241.310546875 157.265625 301.03515625 c 0
 185.544921875 333.883789062 225.46875 378.379882812 245.985351562 399.916015625 c 0
 266.500976562 421.452148438 326.001953125 484.885742188 378.208007812 540.879882812 c 0
 430.415039062 596.874023438 533.262695312 707.8828125 606.756835938 787.567382812 c 0
 723.08984375 913.697265625 747.033203125 932.446289062 791.76171875 932.446289062 c 0
 820.020507812 932.446289062 851.987304688 921.786132812 862.80078125 908.7578125 c 0
 876.853515625 891.825195312 881.672851562 821.46484375 879.69921875 662.0703125 c 0
 877.55859375 489.25390625 871.737304688 433.845703125 853.831054688 415.844726562 c 0
 836.30859375 398.228515625 824.173828125 396.73828125 803.610351562 409.678710938 c 0
 781.264648438 423.739257812 775.702148438 455.345703125 771.989257812 589.33984375 c 0
 769.51171875 678.768554688 761.827148438 757.596679688 754.911132812 764.51171875 c 0
 747.99609375 771.426757812 723.591796875 748.758789062 700.680664062 714.137695312 c 0
 660.712890625 653.7421875 659.024414062 642.563476562 659.024414062 438.37890625 c 0
 659.024414062 321.33203125 651.728515625 211.934570312 642.811523438 195.272460938 c 0
 633.892578125 178.609375 617.135742188 164.9765625 605.572265625 164.9765625 c 0
EndSplineSet
EndChar

StartChar: G
Encoding: 71 71 12
Width: 1206
Flags: W
HStem: 545.202 106.641<232.496 583.067> 743.565 114.873<230.528 790.933>
VStem: 120.734 108.735<663.812 734.715 869.529 987.773> 994.574 97.4258<289.808 506.617>
LayerCount: 2
Fore
SplineSet
581.553710938 12.671875 m 0
 529.41796875 10.17578125 465.43359375 11.83203125 439.366210938 16.3525390625 c 0
 413.297851562 20.875 370.641601562 33.7705078125 344.57421875 45.0107421875 c 0
 318.506835938 56.25 277.047851562 82.4208984375 252.443359375 103.166015625 c 0
 219.206054688 131.19140625 208.764648438 149.991210938 211.818359375 176.3125 c 0
 214.616210938 200.431640625 225.102539062 213.047851562 244.673828125 215.83984375 c 0
 262.612304688 218.399414062 291.620117188 202.775390625 321.833984375 174.279296875 c 0
 363.3828125 135.094726562 385.76171875 126.244140625 479.630859375 111.874023438 c 0
 562.655273438 99.1650390625 601.166992188 98.849609375 639.450195312 110.565429688 c 0
 667.189453125 119.0546875 705.12109375 130.6484375 723.741210938 136.330078125 c 0
 742.360351562 142.01171875 787.750976562 161.018554688 824.606445312 178.568359375 c 0
 861.463867188 196.119140625 914.784179688 234.34765625 943.096679688 263.522460938 c 0
 983.862304688 305.528320312 994.57421875 326.987304688 994.57421875 366.642578125 c 0
 994.57421875 394.184570312 985.315429688 447.895507812 974 486 c 0
 962.68359375 524.104492188 929.956054688 584.625 901.272460938 620.489257812 c 0
 872.588867188 656.353515625 822.236328125 699.549804688 789.379882812 716.481445312 c 0
 732.668945312 745.708007812 716.963867188 747.080078125 479.555664062 743.565429688 c 0
 229.469726562 739.86328125 229.469726562 739.86328125 229.469726562 699.23828125 c 0
 229.469726562 658.61328125 229.469726562 658.61328125 408.276367188 651.842773438 c 0
 523.995117188 647.459960938 592.971679688 639.163085938 603.774414062 628.32421875 c 0
 617.008789062 615.044921875 614.0078125 604.703125 589.288085938 578.388671875 c 0
 559.021484375 546.171875 552.455078125 545.202148438 364.751953125 545.202148438 c 0
 236.784179688 545.202148438 164.006835938 550.640625 149.55078125 561.282226562 c 0
 132.323242188 573.96484375 126.233398438 611.708007812 120.734375 739.86328125 c 0
 116.900390625 829.23828125 117.28125 922.48828125 121.58203125 947.084960938 c 0
 125.8828125 971.682617188 139.034179688 995.50390625 150.807617188 1000.02246094 c 0
 162.581054688 1004.54003906 182.049804688 1002.07714844 194.071289062 994.548828125 c 0
 206.58984375 986.709960938 218.821289062 955.412109375 222.69921875 921.30078125 c 0
 229.469726562 861.73828125 229.469726562 861.73828125 479.991210938 858.438476562 c 0
 670.698242188 855.924804688 744.430664062 849.931640625 788.809570312 833.334960938 c 0
 820.872070312 821.34375 882.112304688 779.124023438 924.897460938 739.51171875 c 0
 970.891601562 696.9296875 1017.63867188 636.963867188 1039.2578125 592.810546875 c 0
 1071.46386719 527.036132812 1092 497.599609375 1092 380 c 0
 1092 246.479492188 1075.82421875 251.088867188 1025.04296875 202.25390625 c 0
 997.11328125 175.39453125 944.454101562 134.758789062 908.0234375 111.952148438 c 0
 871.592773438 89.14453125 804.561523438 58.498046875 759.065429688 43.8486328125 c 0
 713.569335938 29.1982421875 633.688476562 15.1689453125 581.553710938 12.671875 c 0
EndSplineSet
EndChar

StartChar: H
Encoding: 72 72 32
Width: 1028
Flags: W
HStem: 364.556 112.969<546.355 618.416>
VStem: 242.381 94.791<162.359 662.993> 535.001 100.088<381.236 472.526> 668 102.506<189.784 674.558>
LayerCount: 2
Fore
SplineSet
153.231445312 12.90234375 m 0
 137.71484375 12.6650390625 120.95703125 16.5341796875 115.9921875 21.5 c 0
 111.026367188 26.46484375 106.963867188 44.2236328125 106.963867188 60.962890625 c 0
 106.963867188 82.9033203125 125.86328125 103.02734375 174.671875 133.060546875 c 0
 242.380859375 174.721679688 242.380859375 174.721679688 242.380859375 407.544921875 c 0
 242.380859375 640.3671875 242.380859375 640.3671875 173.853515625 706.419921875 c 0
 119.778320312 758.541015625 106.212890625 780.125 109.530273438 808.762695312 c 0
 111.903320312 829.247070312 123.353515625 846.875 135.8203125 849.237304688 c 0
 147.967773438 851.538085938 187.577148438 828.916992188 223.840820312 798.967773438 c 0
 260.10546875 769.01953125 300.440429688 735.196289062 313.474609375 723.806640625 c 0
 334.619140625 705.328125 337.171875 672.782226562 337.171875 421.735351562 c 0
 337.171875 185.669921875 333.681640625 135.389648438 315.493164062 109.421875 c 0
 303.569335938 92.3984375 280.717773438 73.2919921875 264.711914062 66.9619140625 c 0
 248.706054688 60.6328125 223.421875 45.9765625 208.526367188 34.3935546875 c 0
 193.630859375 22.810546875 168.748046875 13.1396484375 153.231445312 12.90234375 c 0
851.639648438 43.0078125 m 0
 830.223632812 40.9013671875 794.487304688 57.390625 753.793945312 88.1552734375 c 0
 707.369140625 123.25390625 686.293945312 150.31640625 677.385742188 186.266601562 c 0
 670.62109375 213.569335938 666.396484375 337.650390625 668 462 c 0
 670.9140625 688.090820312 670.9140625 688.090820312 730.499023438 753.145507812 c 0
 763.26953125 788.92578125 804.69921875 829.890625 822.565429688 844.176757812 c 0
 846.79296875 863.551757812 860.65234375 866.624023438 877.099609375 856.267578125 c 0
 889.228515625 848.629882812 901.1953125 831.986328125 903.694335938 819.28125 c 0
 906.331054688 805.872070312 879.34765625 765.63671875 839.37109375 723.366210938 c 0
 770.505859375 650.551757812 770.505859375 650.551757812 770.505859375 431.60546875 c 0
 770.505859375 212.66015625 770.505859375 212.66015625 832.86328125 155.40625 c 0
 874.293945312 117.366210938 893.568359375 89.45703125 890.298828125 72.240234375 c 0
 887.252929688 56.2001953125 872.521484375 45.0615234375 851.639648438 43.0078125 c 0
587.083984375 364.555664062 m 0
 578.555664062 364.555664062 560.225585938 377.099609375 546.350585938 392.431640625 c 0
 527.51953125 413.239257812 524.641601562 425.884765625 535.000976562 442.307617188 c 0
 542.6328125 454.408203125 558.306640625 470.255859375 569.830078125 477.524414062 c 0
 581.354492188 484.79296875 600.750976562 486.915039062 612.935546875 482.240234375 c 0
 626.227539062 477.138671875 635.088867188 458.40234375 635.088867188 435.397460938 c 0
 635.088867188 414.309570312 627.776367188 389.7421875 618.838867188 380.805664062 c 0
 609.901367188 371.8671875 595.611328125 364.555664062 587.083984375 364.555664062 c 0
EndSplineSet
EndChar

StartChar: I
Encoding: 73 73 33
Width: 1034
Flags: W
HStem: -127.429 21G<203.127 222.837> 1059.71 20G<828.333 842.717> 1059.71 20G<828.333 842.717>
VStem: 138.696 148.572<-40.6121 250.907 433.945 687.554> 751.554 148.571<774.402 1036.7>
LayerCount: 2
Fore
SplineSet
212.982421875 -127.428710938 m 0xd8
 193.272460938 -127.428710938 168.495117188 -111.263671875 157.921875 -91.505859375 c 0
 146.466796875 -70.1025390625 138.696289062 97.94921875 138.696289062 324.293945312 c 0
 138.696289062 670.158203125 141.86328125 708.08203125 174.068359375 747.853515625 c 0
 208.926757812 790.90234375 210.002929688 791.024414062 248.353515625 756.317382812 c 0
 281.6171875 726.21484375 287.268554688 699.74609375 287.268554688 574.045898438 c 0
 287.268554688 458.68359375 292.776367188 428.28515625 312.825195312 432.99609375 c 0
 326.881835938 436.297851562 371.510742188 468.250976562 412 504 c 0
 452.489257812 539.75 545.453125 618.877929688 618.5859375 679.840820312 c 0
 751.553710938 790.680664062 751.553710938 790.680664062 751.553710938 893.921875 c 0
 751.553710938 957.306640625 762.71484375 1013.09960938 780.463867188 1038.43847656 c 0
 796.364257812 1061.140625 821.141601562 1079.71484375 835.525390625 1079.71484375 c 0
 849.908203125 1079.71484375 870.327148438 1063.54980469 880.900390625 1043.79296875 c 0
 891.936523438 1023.171875 900.125 876.653320312 900.125 699.823242188 c 0
 900.125 391.775390625 900.125 391.775390625 853.193359375 370.391601562 c 0
 817.185546875 353.985351562 800.974609375 354.299804688 783.549804688 371.743164062 c 0
 771.059570312 384.248046875 761.450195312 435.8359375 762.196289062 486.381835938 c 0
 763.2578125 558.34375 757.18359375 578.286132812 734.202148438 578.286132812 c 0
 718.059570312 578.286132812 650.591796875 530.942382812 584.274414062 473.079101562 c 0
 517.95703125 415.215820312 424 338.216796875 375.482421875 301.971679688 c 0
 287.268554688 236.072265625 287.268554688 236.072265625 287.268554688 90.2431640625 c 0
 287.268554688 10.0380859375 278.6171875 -71.7490234375 268.04296875 -91.505859375 c 0
 257.469726562 -111.263671875 232.692382812 -127.428710938 212.982421875 -127.428710938 c 0xd8
EndSplineSet
EndChar

StartChar: J
Encoding: 74 74 34
Width: 1256
Flags: W
HStem: 585.334 141.666<130.937 211.977> 628 129.938<1018.64 1101.42> 868.667 161.509<574.739 644.064> 1049.67 20G<837.667 885.624>
VStem: 123.367 103.67<612.202 720.845> 296.666 123.107<376.103 1036.74> 563.333 116.667<69.1635 729.526 893.291 1017.69> 812.484 120.246<436.446 1060.77> 993.171 127.91<652.787 755.377>
LayerCount: 2
Fore
SplineSet
614.817382812 22.625 m 0x3f80
 608.73046875 20.2197265625 594.65625 27.34375 583.541015625 38.458984375 c 0
 569.037109375 52.9619140625 563.333007812 154.009765625 563.333007812 396.4140625 c 0
 563.333007812 720.58984375 564.71484375 734.900390625 597.731445312 752.5703125 c 0
 623.264648438 766.235351562 638.298828125 765.860351562 656.065429688 751.116210938 c 0
 675.388671875 735.079101562 680 667.822265625 680 402 c 0
 680 118.7109375 676.22265625 69.5556640625 652.942382812 49.8740234375 c 0
 638.061523438 37.2939453125 620.904296875 25.03125 614.817382812 22.625 c 0x3f80
355.444335938 335.333984375 m 0
 342.094726562 335.333984375 323.408203125 349.840820312 313.919921875 367.571289062 c 0
 303.774414062 386.52734375 296.666015625 529.412109375 296.666015625 714.385742188 c 0
 296.666015625 943.208007812 302.465820312 1036.89355469 317.939453125 1058.0546875 c 0
 331.446289062 1076.52734375 349.868164062 1083.05859375 368.40234375 1075.94628906 c 0
 384.45703125 1069.78613281 403.444335938 1052.50292969 410.59765625 1037.5390625 c 0
 417.75 1022.57617188 421.87890625 871.583007812 419.7734375 702 c 0
 417.461914062 515.87109375 408.765625 382.106445312 397.831054688 364.5 c 0
 387.868164062 348.458984375 368.794921875 335.333984375 355.444335938 335.333984375 c 0
852.69140625 411.333984375 m 0
 834.415039062 411.333984375 817.930664062 426.708007812 812.484375 448.833984375 c 0
 807.407226562 469.458007812 805.388671875 617.583984375 808 778 c 0
 812.748046875 1069.66699219 812.748046875 1069.66699219 862.586914062 1069.66699219 c 0
 908.661132812 1069.66699219 913.387695312 1064.00097656 925.143554688 994.666992188 c 0
 932.137695312 953.416992188 935.551757812 817.203125 932.73046875 691.969726562 c 0
 929.184570312 534.606445312 920.815429688 456.094726562 905.633789062 437.802734375 c 0
 893.551757812 423.245117188 869.727539062 411.333984375 852.69140625 411.333984375 c 0
171.666015625 585.333984375 m 0xbf80
 160.161132812 585.333984375 141.0390625 597.032226562 129.172851562 611.329101562 c 0
 113.74609375 629.91796875 112.091796875 650.102539062 123.3671875 682.163085938 c 0
 134.745117188 714.516601562 150.625 727 180.401367188 727 c 0
 213.248046875 727 222.76171875 717.444335938 227.037109375 680.159179688 c 0
 229.991210938 654.397460938 223.448242188 622.521484375 212.49609375 609.325195312 c 0
 201.544921875 596.129882812 183.171875 585.333984375 171.666015625 585.333984375 c 0xbf80
1064.20214844 628 m 0x7f80
 1051.89746094 628 1032.80761719 638.870117188 1021.78222656 652.155273438 c 0
 1010.75683594 665.440429688 997.881835938 691.048828125 993.170898438 709.061523438 c 0
 987.657226562 730.145507812 995.556640625 747.556640625 1015.34375 757.9375 c 0
 1033.27148438 767.341796875 1061.70898438 768.16015625 1083.58105469 759.901367188 c 0
 1104.20605469 752.11328125 1121.08105469 733.755859375 1121.08105469 719.108398438 c 0
 1121.08105469 704.459960938 1113.31738281 677.96875 1103.828125 660.23828125 c 0
 1094.33886719 642.5078125 1076.50683594 628 1064.20214844 628 c 0x7f80
614.0703125 868.666992188 m 0
 598.38671875 868.666992188 580.555664062 873.666992188 574.444335938 879.778320312 c 0
 568.333007812 885.888671875 563.333007812 919.874023438 563.333007812 955.301757812 c 0
 563.333007812 999.559570312 571.86328125 1022.98632812 590.598632812 1030.17578125 c 0
 605.594726562 1035.93066406 629.969726562 1033.06347656 644.764648438 1023.8046875 c 0
 659.560546875 1014.546875 674.083007812 986.650390625 677.037109375 961.811523438 c 0
 679.991210938 936.973632812 673.448242188 905.854492188 662.49609375 892.659179688 c 0
 651.544921875 879.462890625 629.752929688 868.666992188 614.0703125 868.666992188 c 0
EndSplineSet
EndChar

StartChar: K
Encoding: 75 75 35
Width: 810
Flags: W
HStem: 1020.37 20G<609.82 655.113>
VStem: 577.296 100.704<239.691 397.704 714.695 856.804>
LayerCount: 2
Fore
SplineSet
640.626953125 46.2841796875 m 0
 620.071289062 43.341796875 597.413085938 46.7744140625 590.275390625 53.9130859375 c 0
 583.135742188 61.0517578125 577.295898438 139.1875 577.295898438 227.547851562 c 0
 577.295898438 315.91015625 570.157226562 392.6171875 561.432617188 398.008789062 c 0
 552.708984375 403.401367188 534.169921875 393.587890625 520.235351562 376.202148438 c 0
 506.301757812 358.81640625 486.662109375 331.374023438 476.591796875 315.219726562 c 0
 466.521484375 299.065429688 409.3203125 234.815429688 349.478515625 172.442382812 c 0
 263.69921875 83.033203125 230.765625 60.1904296875 193.844726562 64.490234375 c 0
 159.094726562 68.537109375 147.353515625 80.23828125 148.329101562 109.8515625 c 0
 149.052734375 131.80078125 179.471679688 185.357421875 215.92578125 228.866210938 c 0
 252.380859375 272.374023438 324.564453125 356.813476562 376.333984375 416.5078125 c 0
 443.133789062 493.533203125 468.23828125 536.671875 462.805664062 565.09375 c 0
 458.594726562 587.120117188 391.999023438 678.256835938 314.814453125 767.619140625 c 0
 212.196289062 886.427734375 174.478515625 943.838867188 174.478515625 981.227539062 c 0
 174.478515625 1010.8984375 186.598632812 1037.01171875 203.354492188 1043.44042969 c 0
 222.379882812 1050.7421875 263.42578125 1024.00390625 323.693359375 965.048828125 c 0
 373.999023438 915.840820312 444.502929688 835.89453125 480.3671875 787.393554688 c 0
 516.231445312 738.891601562 552.346679688 705.979492188 560.623046875 714.256835938 c 0
 568.8984375 722.533203125 578.095703125 799.29296875 581.060546875 884.834960938 c 0
 586.336914062 1037.09082031 587.415039062 1040.36621094 632.225585938 1040.36621094 c 0
 678 1040.36621094 678 1040.36621094 678 546 c 0
 678 62.265625 677.196289062 51.5185546875 640.626953125 46.2841796875 c 0
EndSplineSet
EndChar

StartChar: L
Encoding: 76 76 36
Width: 749
Flags: W
VStem: 469.471 145.529<148.568 762.72>
LayerCount: 2
Fore
SplineSet
538.095703125 -50.5830078125 m 0
 520.313476562 -50.5830078125 499.001953125 -40.13671875 490.739257812 -27.369140625 c 0
 482.475585938 -14.6005859375 472.905273438 179.703125 469.470703125 404.416992188 c 0
 466.036132812 629.130859375 459.615234375 816.623046875 455.201171875 821.06640625 c 0
 450.787109375 825.509765625 415.989257812 799.16015625 377.873046875 762.51171875 c 0
 339.756835938 725.862304688 280.525390625 672.684570312 246.24609375 644.33984375 c 0
 197.95703125 604.41015625 177.045898438 597.140625 153.389648438 612.0625 c 0
 136.596679688 622.655273438 122.857421875 648.69140625 122.857421875 669.920898438 c 0
 122.857421875 694.112304688 181.779296875 764.990234375 280.713867188 859.807617188 c 0
 367.53515625 943.015625 465.331054688 1024.28808594 498.036132812 1040.41308594 c 0
 546.831054688 1064.46972656 562.661132812 1065.44921875 586.250976562 1045.87109375 c 0
 610.934570312 1025.38574219 615 949.331054688 615 508 c 0
 615 132.975585938 608.974609375 -12.037109375 592.713867188 -28.296875 c 0
 580.45703125 -40.5546875 555.87890625 -50.5830078125 538.095703125 -50.5830078125 c 0
EndSplineSet
EndChar

StartChar: M
Encoding: 77 77 37
Width: 1375
Flags: W
LayerCount: 2
Fore
SplineSet
183.454101562 130.198242188 m 0
 171.682617188 125.680664062 154.232421875 131.404296875 144.677734375 142.916992188 c 0
 135.123046875 154.4296875 129.397460938 172.782226562 131.954101562 183.702148438 c 0
 134.51171875 194.620117188 208.942382812 269.624023438 297.356445312 350.375976562 c 0
 385.770507812 431.127929688 532.309570312 563.708984375 623 645 c 0
 713.689453125 726.290039062 838.715820312 838.725585938 900.833984375 894.856445312 c 0
 962.952148438 950.987304688 1028.80957031 1002.87988281 1047.18359375 1010.171875 c 0
 1072.43652344 1020.19433594 1086.10644531 1017.91601562 1103.1875 1000.83398438 c 0
 1116.7109375 987.3125 1122.94140625 965.146484375 1118.703125 945.639648438 c 0
 1114.80859375 927.7109375 1095.82421875 878.4453125 1076.515625 836.16015625 c 0
 1057.20605469 793.874023438 1025.38574219 724.681640625 1005.80273438 682.396484375 c 0
 984.333984375 636.0390625 975.245117188 600.373046875 982.909179688 592.565429688 c 0
 990.682617188 584.645507812 1005.25097656 587.420898438 1020.41308594 599.709960938 c 0
 1034.04882812 610.760742188 1067.22167969 631.850585938 1094.12988281 646.575195312 c 0
 1121.0390625 661.30078125 1153.9921875 679.998046875 1167.359375 688.125 c 0
 1186.37890625 699.688476562 1198.34765625 696.219726562 1222.39257812 672.174804688 c 0
 1251.94921875 642.6171875 1252.17285156 640.40234375 1228.26757812 613.986328125 c 0
 1214.59960938 598.883789062 1180.39941406 575.842773438 1152.26757812 562.78515625 c 0
 1124.13671875 549.727539062 1090.86230469 530.115234375 1078.32714844 519.204101562 c 0
 1065.79003906 508.291992188 1034.33886719 488.463867188 1008.43457031 475.140625 c 0
 982.529296875 461.818359375 935.114257812 436.08203125 903.06640625 417.950195312 c 0
 868.866210938 398.599609375 834.919921875 388.771484375 820.8828125 394.158203125 c 0
 802.278320312 401.297851562 798.526367188 414.948242188 803.985351562 455.64453125 c 0
 807.84375 484.4140625 834.747070312 559.901367188 863.771484375 623.395507812 c 0
 892.794921875 686.888671875 912.797851562 742.581054688 908.22265625 747.157226562 c 0
 903.646484375 751.732421875 885.396484375 743.750976562 867.666015625 729.419921875 c 0
 849.934570312 715.088867188 781.982421875 652.284179688 716.66015625 589.853515625 c 0
 651.338867188 527.422851562 543.490234375 429.922851562 476.99609375 373.186523438 c 0
 410.502929688 316.451171875 322.0703125 240.416015625 280.478515625 204.220703125 c 0
 238.887695312 168.025390625 195.2265625 134.71484375 183.454101562 130.198242188 c 0
EndSplineSet
EndChar

StartChar: N
Encoding: 78 78 38
Width: 1328
Flags: W
HStem: 385.384 112.595<337.667 810.215>
VStem: 130.776 115.697<146.364 786.884>
LayerCount: 2
Fore
SplineSet
194.388671875 -148.684570312 m 0
 188.319335938 -148.684570312 170.509765625 -134.489257812 154.80859375 -117.141601562 c 0
 129.168945312 -88.810546875 126.72265625 -28.4599609375 130.776367188 475.409179688 c 0
 134.813476562 977.302734375 138.29296875 1038.31054688 163.790039062 1054.38769531 c 0
 184.466796875 1067.42578125 199.7265625 1066.1875 219.3828125 1049.87402344 c 0
 243.104492188 1030.18652344 246.473632812 956.814453125 246.473632812 459.879882812 c 0
 246.473632812 41.2890625 241.087890625 -113.017578125 225.947265625 -128.157226562 c 0
 214.658203125 -139.447265625 200.456054688 -148.684570312 194.388671875 -148.684570312 c 0
1000.7890625 483.255859375 m 1
 851.123046875 662.959960938 779.998046875 745.458007812 746.173828125 782.525390625 c 0
 712.349609375 819.592773438 684.221679688 864.768554688 683.666992188 882.916015625 c 0
 683.112304688 901.064453125 696.127929688 924.579101562 712.591796875 935.171875 c 0
 732.845703125 948.202148438 750.939453125 948.926757812 768.5390625 937.412109375 c 0
 782.846679688 928.052734375 875.475585938 828.026367188 974.380859375 715.131835938 c 0
 1073.28613281 602.237304688 1152.02441406 498.322265625 1149.35449219 484.2109375 c 0
 1146.68457031 470.098632812 1096.92578125 394.658203125 1038.78027344 316.565429688 c 0
 980.634765625 238.47265625 918.9765625 155.487304688 901.762695312 132.154296875 c 0
 884.548828125 108.822265625 854.611328125 85.5859375 835.235351562 80.5185546875 c 0
 813.967773438 74.95703125 790.63671875 82.5927734375 776.369140625 99.78515625 c 0
 756.21875 124.065429688 756.395507812 134.14453125 777.563476562 168.145507812 c 0
 791.220703125 190.080078125 847.033203125 269.952148438 901.591796875 345.640625 c 2
 1000.7890625 483.255859375 l 1
592.499023438 385.383789062 m 0
 390.49609375 381.455078125 346.73046875 384.969726562 338.750976562 405.765625 c 0
 333.446289062 419.587890625 331.776367188 444.81640625 335.0390625 461.830078125 c 0
 340.336914062 489.44921875 364.770507812 493.321289062 563.130859375 497.978515625 c 0
 685.318359375 500.845703125 796.834960938 496.158203125 810.947265625 487.560546875 c 0
 825.059570312 478.962890625 836.60546875 453.524414062 836.60546875 431.030273438 c 0
 836.60546875 390.131835938 836.60546875 390.131835938 592.499023438 385.383789062 c 0
EndSplineSet
EndChar

StartChar: O
Encoding: 79 79 39
Width: 921
Flags: W
HStem: 1067.65 20G<458.645 470.484> 1067.65 20G<458.645 470.484>
VStem: 103.985 87.5156<331.736 635.426> 414 100.454<-136.973 49.816 171.305 795.962> 431.645 82.8096<920.564 1073.08> 739 79.0488<346.627 619.731>
LayerCount: 2
Fore
SplineSet
467.181640625 -153.256835938 m 0xac
 455.7734375 -153.256835938 440.51953125 -146.124023438 433.283203125 -137.405273438 c 0
 426.047851562 -128.686523438 421.045898438 -88.2236328125 422.169921875 -47.4873046875 c 0
 423.982421875 18.287109375 420.993164062 29.0517578125 395.46875 48.6708984375 c 0
 379.661132812 60.8212890625 359.241210938 70.880859375 350.090820312 71.025390625 c 0
 340.94140625 71.169921875 305.274414062 93.0302734375 270.831054688 119.603515625 c 0
 236.387695312 146.17578125 195.293945312 190.05078125 179.512695312 217.103515625 c 0
 163.73046875 244.155273438 141.768554688 292.87890625 130.708984375 325.37890625 c 0
 119.6484375 357.87890625 107.623046875 412.698242188 103.985351562 447.198242188 c 0
 100.346679688 481.698242188 104.008789062 540.198242188 112.122070312 577.198242188 c 0
 120.235351562 614.197265625 139.770507812 671.427734375 155.53515625 704.375 c 0
 171.298828125 737.323242188 207.83984375 787.482421875 236.735351562 815.841796875 c 0
 265.630859375 844.201171875 317.336914062 879.237304688 351.635742188 893.700195312 c 0
 413.791015625 919.908203125 414.009765625 920.1875 417.124023438 977.233398438 c 0
 418.842773438 1008.71386719 425.375976562 1046.43652344 431.64453125 1061.06152344 c 0
 437.911132812 1075.68554688 452.725585938 1087.65234375 464.564453125 1087.65234375 c 0
 476.403320312 1087.65234375 492.47265625 1081.27050781 500.272460938 1073.46972656 c 0
 508.072265625 1065.67089844 514.454101562 1029.06054688 514.454101562 992.115234375 c 0
 514.454101562 924.943359375 514.454101562 924.943359375 588.953125 887.896484375 c 0
 634.102539062 865.444335938 679.705078125 831.149414062 704.709960938 800.841796875 c 0
 727.40234375 773.337890625 760.577148438 725.576171875 778.432617188 694.705078125 c 0
 805.729492188 647.508789062 812.03515625 619.889648438 818.048828125 521.1796875 c 0
 824.313476562 418.345703125 821.770507812 393.056640625 797.545898438 317.30859375 c 0
 774.428710938 245.022460938 758.890625 219.7890625 702.844726562 163.515625 c 0
 665.969726562 126.490234375 609.826171875 83.88671875 578.081054688 68.8408203125 c 0
 520.36328125 41.4853515625 520.36328125 41.4853515625 516.813476562 -40.6201171875 c 0
 514.859375 -85.7783203125 507.561523438 -129.595703125 500.592773438 -137.991210938 c 0
 493.625 -146.387695312 478.58984375 -153.256835938 467.181640625 -153.256835938 c 0xac
402.181640625 146.18359375 m 0
 409.685546875 148.655273438 414 270.524414062 414 480 c 0x34
 414 808.456054688 413.887695312 809.920898438 388.958984375 809.153320312 c 0
 375.186523438 808.728515625 348.221679688 795.43359375 329.03515625 779.607421875 c 0
 309.850585938 763.782226562 276.625976562 727.634765625 255.202148438 699.280273438 c 0
 233.075195312 669.995117188 209.423828125 618.947265625 200.446289062 581.098632812 c 0
 191.166992188 541.9765625 187.473632812 487.63671875 191.500976562 449.470703125 c 0
 195.274414062 413.719726562 209.177734375 357.87890625 222.397460938 325.37890625 c 0
 235.6171875 292.87890625 262.86328125 248.353515625 282.944335938 226.432617188 c 0
 303.024414062 204.512695312 335.408203125 176.61328125 354.909179688 164.434570312 c 0
 374.409179688 152.255859375 395.681640625 144.04296875 402.181640625 146.18359375 c 0
553.162109375 158.291015625 m 0
 565.032226562 161.39453125 583.41796875 171.009765625 594.01953125 179.657226562 c 0
 604.620117188 188.3046875 626.953125 208.674804688 643.647460938 224.924804688 c 0
 660.340820312 241.174804688 676.842773438 262.447265625 680.317382812 272.197265625 c 0
 683.791992188 281.947265625 692.708007812 303.220703125 700.130859375 319.470703125 c 0
 707.553710938 335.720703125 719.3359375 367.09375 726.313476562 389.188476562 c 0
 733.291015625 411.283203125 739 449.581054688 739 474.29296875 c 0
 739 499.006835938 731.17578125 549.265625 721.612304688 585.98046875 c 0
 712.049804688 622.6953125 690.203125 674.897460938 673.067382812 701.985351562 c 0
 655.9296875 729.073242188 621.005859375 766.26171875 595.458007812 784.625976562 c 0
 569.909179688 802.990234375 541.231445312 815.033203125 531.73046875 811.38671875 c 0
 517.16796875 805.798828125 514.454101562 754.889648438 514.454101562 487.265625 c 0
 514.454101562 312.64453125 518.307617188 165.919921875 523.017578125 161.209960938 c 0
 527.727539062 156.5 541.29296875 155.186523438 553.162109375 158.291015625 c 0
EndSplineSet
EndChar

StartChar: P
Encoding: 80 80 40
Width: 1435
Flags: W
HStem: 278.808 124.745<761.812 837.254> 649.277 119.737<686.021 842.176>
VStem: 731.103 114.295<310.834 391.965> 1232.85 93.6416<57.5675 118.868>
LayerCount: 2
Fore
SplineSet
1285.52636719 54.0439453125 m 0
 1265.88769531 51.23828125 1242.18359375 58.935546875 1232.8515625 71.1494140625 c 0
 1223.52050781 83.36328125 1201.1015625 124.145507812 1183.03320312 161.77734375 c 0
 1164.96484375 199.409179688 1146.31542969 241.744140625 1141.59179688 255.856445312 c 0
 1136.8671875 269.96875 1103.11425781 327.698242188 1066.5859375 384.145507812 c 0
 1030.05761719 440.592773438 983.889648438 505.017578125 963.9921875 527.310546875 c 0
 944.09375 549.604492188 899.1015625 586.166015625 864.008789062 608.560546875 c 0
 828.916015625 630.955078125 783.405273438 649.27734375 762.874023438 649.27734375 c 0
 742.34375 649.27734375 688.459960938 625.478515625 643.130859375 596.392578125 c 0
 595.122070312 565.584960938 520.342773438 489.862304688 464 415 c 0
 410.8046875 344.3203125 348.375976562 250.733398438 325.268554688 207.029296875 c 0
 302.161132812 163.325195312 271.215820312 114.096679688 256.501953125 97.6328125 c 0
 241.787109375 81.1689453125 219.23046875 67.6982421875 206.374023438 67.6982421875 c 0
 193.518554688 67.6982421875 174.967773438 85.330078125 165.1484375 106.879882812 c 0
 150.086914062 139.9375 158.547851562 164.666015625 219.296875 265.103515625 c 0
 258.896484375 330.577148438 314.9375 418.784179688 343.833007812 461.119140625 c 0
 372.728515625 503.455078125 426.87109375 571.229492188 464.149414062 611.729492188 c 0
 501.426757812 652.229492188 571.711914062 704.186523438 620.336914062 727.189453125 c 0
 668.961914062 750.193359375 735.927734375 769.014648438 769.151367188 769.014648438 c 0
 802.374023438 769.014648438 855.512695312 758.032226562 887.237304688 744.610351562 c 0
 918.961914062 731.188476562 976.708984375 686.928710938 1015.56445312 646.254882812 c 0
 1054.41992188 605.58203125 1112.87988281 533.670898438 1145.47558594 486.454101562 c 0
 1178.0703125 439.236328125 1233.31835938 340.3828125 1268.24609375 266.778320312 c 0
 1303.17382812 193.174804688 1329.38476562 116.346679688 1326.49316406 96.0498046875 c 0
 1323.3359375 73.8935546875 1306.96582031 57.1064453125 1285.52636719 54.0439453125 c 0
806.853515625 278.807617188 m 0
 798.118164062 276.198242188 777.500976562 281.896484375 761.037109375 291.46875 c 0
 744.572265625 301.041015625 731.102539062 322.94140625 731.102539062 340.137695312 c 0
 731.102539062 357.333984375 742.55078125 380.905273438 756.541992188 392.517578125 c 0
 770.534179688 404.129882812 793.801757812 409.095703125 808.247070312 403.552734375 c 0
 822.69140625 398.009765625 839.409179688 380.70703125 845.397460938 365.103515625 c 0
 851.384765625 349.499023438 848.736328125 324.766601562 839.510742188 310.141601562 c 0
 830.286132812 295.516601562 815.58984375 281.416015625 806.853515625 278.807617188 c 0
EndSplineSet
EndChar

StartChar: Q
Encoding: 81 81 41
Width: 1160
Flags: W
HStem: -107.844 96.1973<463.085 719.275> 1070.27 20G<137.849 165.646> 1070.27 20G<137.849 165.646>
VStem: 132.46 116.705<193.063 519.799> 941.511 102.247<199.114 520.083>
LayerCount: 2
Fore
SplineSet
635.08984375 -107.84375 m 0xd8
 574.836914062 -110.55859375 505.8203125 -107.993164062 481.71875 -102.141601562 c 0
 457.618164062 -96.2900390625 414.186523438 -80.6123046875 385.205078125 -67.3017578125 c 0
 356.223632812 -53.9912109375 298.752929688 -6.1630859375 257.4921875 38.982421875 c 0
 204.208007812 97.283203125 175.153320312 145.086914062 157.205078125 203.981445312 c 0
 143.307617188 249.5859375 132.172851562 319.763671875 132.459960938 359.932617188 c 0
 132.748046875 400.1015625 144.768554688 470.104492188 159.172851562 515.49609375 c 0
 173.577148438 560.88671875 206.03125 622.890625 231.29296875 653.28125 c 0
 256.555664062 683.671875 279.348632812 717.188476562 281.9453125 727.762695312 c 0
 284.541992188 738.336914062 272.331054688 765.0703125 254.810546875 787.168945312 c 0
 237.290039062 809.267578125 217.774414062 840.764648438 211.443359375 857.162109375 c 0
 205.111328125 873.559570312 189.38671875 895.7265625 176.499023438 906.422851562 c 0
 163.611328125 917.118164062 153.067382812 932.762695312 153.067382812 941.188476562 c 0
 153.067382812 949.614257812 142.71484375 967.948242188 130.0625 981.928710938 c 0
 117.140625 996.208007812 109.137695312 1025.52050781 111.803710938 1048.80957031 c 0
 115.5546875 1081.57324219 123.936523438 1090.26953125 151.76171875 1090.26953125 c 0
 179.530273438 1090.26953125 200.298828125 1068.85058594 250.014648438 988.94140625 c 0
 284.688476562 933.2109375 331.287109375 865.715820312 353.567382812 838.952148438 c 0
 394.079101562 790.291015625 394.079101562 790.291015625 465.782226562 812.471679688 c 0
 505.21875 824.670898438 564.848632812 834.651367188 598.291992188 834.651367188 c 0
 631.736328125 834.651367188 691.4921875 823.651367188 731.083007812 810.206054688 c 0
 770.674804688 796.760742188 821.3671875 774.67578125 843.734375 761.129882812 c 0
 866.100585938 747.583007812 907.294921875 709.752929688 935.275390625 677.063476562 c 0
 963.256835938 644.374023438 999.0390625 589.225585938 1014.79394531 554.510742188 c 0
 1036.53222656 506.608398438 1043.51464844 458.78515625 1043.7578125 356.122070312 c 0
 1044.01074219 249.586914062 1037.69726562 207.2734375 1014.03808594 156.942382812 c 0
 997.516601562 121.79296875 961.3046875 66.5224609375 933.568359375 34.1181640625 c 0
 905.83203125 1.71484375 851.9765625 -42.37109375 813.889648438 -63.8515625 c 0
 759.721679688 -94.400390625 720.782226562 -103.981445312 635.08984375 -107.84375 c 0xd8
591.26953125 -11.646484375 m 0
 627.420898438 -11.7841796875 686.579101562 1.4755859375 722.73046875 17.8212890625 c 0
 758.881835938 34.1669921875 810.625976562 68.53125 837.715820312 94.185546875 c 0
 864.806640625 119.840820312 899.170898438 167.123046875 914.081054688 199.258789062 c 0
 931.720703125 237.276367188 941.301757812 291.502929688 941.510742188 354.497070312 c 0
 941.696289062 410.380859375 931.994140625 475.219726562 918.5625 507.868164062 c 0
 905.764648438 538.975585938 877.829101562 583.248046875 856.484375 606.250976562 c 0
 835.138671875 629.254882812 794.033203125 663.208984375 765.138671875 681.706054688 c 0
 736.245117188 700.202148438 682.061523438 719.916015625 644.73046875 725.513671875 c 0
 607.400390625 731.112304688 553.462890625 731.303710938 524.869140625 725.939453125 c 0
 496.275390625 720.575195312 468.893554688 705.795898438 464.020507812 693.096679688 c 0
 459.146484375 680.396484375 462.826171875 659.397460938 472.197265625 646.430664062 c 0
 481.567382812 633.463867188 497.03125 606.420898438 506.559570312 586.336914062 c 0
 516.088867188 566.252929688 532.965820312 538.8984375 544.065429688 525.549804688 c 0
 555.165039062 512.201171875 562.110351562 482.678710938 559.499023438 459.944335938 c 0
 556.69921875 435.563476562 544.793945312 416.72265625 530.471679688 414.008789062 c 0
 516.6484375 411.389648438 489.990234375 430.208984375 468.577148438 457.704101562 c 0
 447.890625 484.266601562 415.830078125 529.005859375 397.333007812 557.124023438 c 0
 378.8359375 585.241210938 354.661132812 608.247070312 343.611328125 608.247070312 c 0
 332.561523438 608.247070312 306.690429688 578.668945312 286.120117188 542.516601562 c 0
 253.93359375 485.94921875 248.782226562 459.479492188 249.165039062 352.62890625 c 0
 249.563476562 241.36328125 253.86328125 222.079101562 290.58203125 166.904296875 c 0
 313.116210938 133.041992188 353.788085938 88.3779296875 380.962890625 67.650390625 c 0
 408.137695312 46.9228515625 451.78515625 20.658203125 477.956054688 9.2841796875 c 0
 504.126953125 -2.08984375 555.118164062 -11.5087890625 591.26953125 -11.646484375 c 0
EndSplineSet
EndChar

StartChar: R
Encoding: 82 82 42
Width: 800
Flags: W
HStem: 1033.89 20G<118.242 145.293 626.879 637.216> 1067.39 20G<626.879 637.216>
LayerCount: 2
Fore
SplineSet
635.059570312 -118.793945312 m 0
 626.379882812 -118.793945312 612.041015625 -111.556640625 603.196289062 -102.7109375 c 0
 591.831054688 -91.3466796875 587.11328125 -12.9443359375 587.11328125 164.5390625 c 0
 587.11328125 311.59765625 581.748046875 419.022460938 574.169921875 423.706054688 c 0
 567.05078125 428.106445312 529.357421875 421.928710938 490.407226562 409.978515625 c 0
 451.456054688 398.02734375 395.994140625 375.182617188 367.157226562 359.212890625 c 0
 338.3203125 343.2421875 308.418945312 319.973632812 300.709960938 307.505859375 c 0
 290.014648438 290.208007812 292.911132812 277.92578125 312.934570312 255.666992188 c 0
 327.3671875 239.623046875 348.858398438 222.684570312 360.693359375 218.026367188 c 0
 372.528320312 213.368164062 404.53515625 192.401367188 431.8203125 171.434570312 c 0
 466.604492188 144.705078125 480.19921875 124.6796875 477.3125 104.424804688 c 0
 474.430664062 84.1982421875 462.181640625 74.2685546875 436.463867188 71.3076171875 c 0
 409.446289062 68.197265625 378.485351562 83.4267578125 319.400390625 128.891601562 c 0
 275.21875 162.888671875 223.899414062 210.592773438 205.359375 234.901367188 c 0
 186.819335938 259.208984375 171.649414062 294.599609375 171.649414062 313.545898438 c 0
 171.649414062 339.243164062 187.823242188 359.700195312 235.309570312 394.064453125 c 0
 270.322265625 419.40234375 311.859375 443.296875 327.614257812 447.1640625 c 0
 343.369140625 451.032226562 373.5234375 463.25 394.624023438 474.315429688 c 0
 415.725585938 485.381835938 448.067382812 500.654296875 466.495117188 508.254882812 c 0
 484.922851562 515.856445312 510.5546875 525.447265625 523.453125 529.5703125 c 0
 536.352539062 533.693359375 546.791992188 541.778320312 546.650390625 547.538085938 c 0
 546.508789062 553.297851562 491.731445312 609.2734375 424.920898438 671.927734375 c 0
 358.111328125 734.58203125 257.374023438 830.506835938 201.060546875 885.092773438 c 0
 126.0078125 957.842773438 98.5732421875 993.624023438 98.3046875 1019.11328125 c 0
 98.0048828125 1047.60449219 104.151367188 1053.88671875 132.33203125 1053.88671875 c 0
 158.254882812 1053.88671875 215.123046875 1007.69921875 363.231445312 866.353515625 c 0
 471.309570312 763.209960938 565.896484375 676.766601562 573.424804688 674.256835938 c 0
 582.274414062 671.307617188 587.11328125 731.374023438 587.11328125 844.165039062 c 0
 587.11328125 940.124023438 592.995117188 1034.10644531 600.18359375 1053.01464844 c 0
 607.372070312 1071.921875 621.7109375 1087.39160156 632.047851562 1087.39160156 c 0
 642.384765625 1087.39160156 657.685546875 1079.14550781 666.05078125 1069.06542969 c 0
 676.861328125 1056.04003906 681.297851562 886.959960938 681.389648438 484.455078125 c 0
 681.482421875 78.79296875 677.168945312 -87.072265625 666.180664062 -100.311523438 c 0
 657.744140625 -110.4765625 643.740234375 -118.793945312 635.059570312 -118.793945312 c 0
EndSplineSet
EndChar

StartChar: S
Encoding: 83 83 43
Width: 727
Flags: W
HStem: 124.643 142.429<465.09 528.268> 615.286 108.333<430.007 618.79> 646.238 95.8711<109.711 277.99> 893.857 120.88<179.623 245.479>
VStem: 138.333 114.774<-2.74488 541.249> 169.1 90.3623<916.806 1012.15> 305.232 100.442<-42.1008 581.141 756.882 1048.5> 450.67 90.0439<142.336 263.714> 454.253 117.414<790.322 1047.99>
LayerCount: 2
Fore
SplineSet
349.42578125 -109.370117188 m 0xd2
 335.416015625 -112.126953125 320.731445312 -105.163085938 316.79296875 -93.8935546875 c 0
 312.854492188 -82.625 307.65234375 78.640625 305.232421875 264.473632812 c 0
 301.146484375 578.270507812 298.692382812 603.915039062 270.791992188 624.294921875 c 0
 254.26953125 636.364257812 210.5234375 646.23828125 173.580078125 646.23828125 c 0
 126.682617188 646.23828125 103.58203125 653.606445312 97.041015625 670.65234375 c 0
 91.888671875 684.080078125 97.330078125 704.587890625 109.133789062 716.2265625 c 0
 120.9375 727.864257812 165.416992188 739.51171875 207.9765625 742.109375 c 0xb2
 285.357421875 746.833007812 285.357421875 746.833007812 295.8984375 831.952148438 c 0
 301.697265625 878.767578125 303.140625 939.608398438 299.107421875 967.15234375 c 0
 295.07421875 994.696289062 299.506835938 1031.68164062 308.958007812 1049.34082031 c 0
 319.981445312 1069.93847656 338.250976562 1079.72558594 359.916015625 1076.64160156 c 0
 391.690429688 1072.11816406 393.955078125 1062.71972656 398.15625 917.938476562 c 0
 400.612304688 833.295898438 410.169921875 754.948242188 419.396484375 743.831054688 c 0
 429.305664062 731.891601562 469.45703125 723.619140625 517.5 723.619140625 c 0
 572.825195312 723.619140625 605.333007812 715.782226562 619.171875 699.107421875 c 0
 633.876953125 681.389648438 635.03515625 667.450195312 623.352539062 648.809570312 c 0
 612.014648438 630.721679688 577.631835938 620.713867188 508.178710938 615.286132812 c 0
 409.166992188 607.547851562 409.166992188 607.547851562 405.674804688 274.809570312 c 0
 403.75390625 91.8037109375 396.04296875 -68.375 388.5390625 -81.142578125 c 0
 381.036132812 -93.9111328125 363.434570312 -106.61328125 349.42578125 -109.370117188 c 0xd2
215.713867188 -14.9619140625 m 0
 202.946289062 -17.025390625 180.3125 -11.5205078125 165.416992188 -2.73046875 c 0
 141.381835938 11.453125 138.333007812 41.69140625 138.333007812 265.9453125 c 0
 138.333007812 467.965820312 142.83984375 522.37890625 160.8046875 537.288085938 c 0
 173.163085938 547.544921875 195.295898438 553.62109375 209.98828125 550.790039062 c 0
 224.681640625 547.958984375 241.384765625 528.133789062 247.108398438 506.732421875 c 0
 252.83203125 485.333007812 255.530273438 398.279296875 253.107421875 313.280273438 c 0x9a
 250.68359375 228.282226562 246.501953125 120.5 243.814453125 73.763671875 c 0
 240.313476562 12.875 232.348632812 -12.2734375 215.713867188 -14.9619140625 c 0
500.477539062 124.642578125 m 0
 491.115234375 121.547851562 474.970703125 129.240234375 464.599609375 141.735351562 c 0
 454.229492188 154.231445312 447.961914062 187.54296875 450.669921875 215.762695312 c 0
 454.741210938 258.177734375 462.009765625 267.071289062 492.599609375 267.071289062 c 0
 512.951171875 267.071289062 537.326171875 254.82421875 546.765625 239.854492188 c 0
 559.80078125 219.182617188 558.345703125 202.733398438 540.713867188 171.452148438 c 0x93
 527.946289062 148.80078125 509.83984375 127.736328125 500.477539062 124.642578125 c 0
508.885742188 754.571289062 m 0
 491.383789062 754.571289062 472.24609375 769.56640625 464.447265625 789.392578125 c 0
 456.913085938 808.544921875 452.325195312 871.4609375 454.252929688 929.20703125 c 0
 456.788085938 1005.171875 465.221679688 1041.54101562 484.7578125 1060.75488281 c 0
 510.294921875 1085.86914062 513.3828125 1085.328125 541.712890625 1050.7734375 c 0
 564.466796875 1023.01953125 571.666992188 990.225585938 571.666992188 914.33984375 c 0x9280
 571.666992188 859.395507812 564.458007812 800.970703125 555.645507812 784.506835938 c 0
 546.834960938 768.041992188 525.79296875 754.571289062 508.885742188 754.571289062 c 0
216.217773438 893.857421875 m 0
 210.067382812 893.857421875 192.954101562 907.20703125 178.189453125 923.522460938 c 0
 156.450195312 947.543945312 154.720703125 959.499023438 169.099609375 986.366210938 c 0
 180.63671875 1007.92382812 198.685546875 1017.86035156 220.630859375 1014.73730469 c 0
 242.251953125 1011.65820312 256.224609375 997.091796875 259.461914062 974.254882812 c 0x96
 262.243164062 954.634765625 256.166992188 928.518554688 245.959960938 916.219726562 c 0
 235.751953125 903.919921875 222.368164062 893.857421875 216.217773438 893.857421875 c 0
EndSplineSet
EndChar

StartChar: T
Encoding: 84 84 44
Width: 1452
Flags: W
VStem: 689.36 97.6797<653.094 1078.19>
LayerCount: 2
Fore
SplineSet
203.4765625 -24.2724609375 m 0
 193.9296875 -26.6865234375 173.06640625 -14.2392578125 157.114257812 3.3876953125 c 0
 136.5 26.166015625 132.34765625 42.087890625 142.760742188 58.42578125 c 0
 150.818359375 71.0693359375 202.146484375 112.14453125 256.823242188 149.704101562 c 0
 311.5 187.263671875 404.412109375 249.681640625 463.293945312 288.412109375 c 0
 522.176757812 327.141601562 588.489257812 376.854492188 610.655273438 398.884765625 c 0
 648.216796875 436.21875 652.1484375 453.495117188 668.486328125 653.05859375 c 0
 678.126953125 770.823242188 687.520507812 911.196289062 689.360351562 964.998046875 c 0
 691.78125 1035.76464844 699.533203125 1067.10546875 717.391601562 1078.31445312 c 0
 730.96875 1086.83691406 754.02734375 1089.22363281 768.6328125 1083.61914062 c 0
 792.9140625 1074.30175781 794.490234375 1049.76367188 787.040039062 797.004882812 c 0
 779.9921875 557.869140625 781.92578125 521.744140625 801.373046875 529.20703125 c 0
 813.736328125 533.951171875 849.403320312 557.467773438 880.631835938 581.466796875 c 0
 911.861328125 605.46484375 1002.79394531 669.095703125 1082.70605469 722.8671875 c 0
 1163.37402344 777.1484375 1245.00683594 820.78125 1266.23535156 820.963867188 c 0
 1293.90234375 821.203125 1305.77246094 812.158203125 1309.1796875 788.241210938 c 0
 1312.39648438 765.662109375 1297.85644531 742.640625 1263.29785156 715.591796875 c 0
 1235.47167969 693.814453125 1150.76464844 632.689453125 1075.05859375 579.758789062 c 0
 999.352539062 526.828125 889.235351562 449.8125 830.352539062 408.61328125 c 0
 771.470703125 367.415039062 693.305664062 312.649414062 656.65234375 286.912109375 c 0
 619.999023438 261.174804688 574.129882812 229.793945312 554.721679688 217.176757812 c 0
 535.3125 204.55859375 479.272460938 167.256835938 430.186523438 134.284179688 c 0
 381.1015625 101.310546875 313.916992188 53.134765625 280.887695312 27.2255859375 c 0
 247.858398438 1.31640625 213.0234375 -21.857421875 203.4765625 -24.2724609375 c 0
EndSplineSet
EndChar

StartChar: U
Encoding: 85 85 45
Width: 1292
Flags: W
HStem: 839.941 20G<646.796 690.414>
VStem: 1109.57 77.0625<102.211 168.701>
LayerCount: 2
Fore
SplineSet
162.225585938 97.986328125 m 0
 140.912109375 94.958984375 124.030273438 102.7734375 118.013671875 118.450195312 c 0
 112.662109375 132.3984375 115.076171875 165.572265625 123.37890625 192.169921875 c 0
 131.682617188 218.767578125 173.502929688 309.352539062 216.3125 393.470703125 c 0
 259.123046875 477.587890625 330.73828125 594.587890625 375.458984375 653.470703125 c 0
 420.177734375 712.353515625 490.22265625 782.896484375 531.112304688 810.235351562 c 0
 586.171875 847.047851562 622.486328125 859.94140625 671.106445312 859.94140625 c 0
 709.721679688 859.94140625 763.538085938 845.770507812 801.791992188 825.529296875 c 0
 841.185546875 804.686523438 893.606445312 754.934570312 934.741210938 699.352539062 c 0
 972.09375 648.8828125 1029.16113281 552.529296875 1061.55859375 485.235351562 c 0
 1093.95507812 417.94140625 1134.40917969 331.912109375 1151.453125 294.05859375 c 0
 1168.49804688 256.206054688 1184.33007812 202.112304688 1186.63378906 173.850585938 c 0
 1189.5859375 137.6484375 1182.63183594 117.313476562 1163.1015625 105.02734375 c 0
 1140.57226562 90.85546875 1130.54199219 93.4951171875 1109.57128906 119.111328125 c 0
 1095.37695312 136.44921875 1060.83203125 208.713867188 1032.80273438 279.69921875 c 0
 1004.77246094 350.685546875 975.78125 419.087890625 968.377929688 431.706054688 c 0
 960.974609375 444.323242188 939.615234375 484.012695312 920.913085938 519.904296875 c 0
 902.2109375 555.796875 855.091796875 620.686523438 816.203125 664.10546875 c 0
 761.928710938 724.701171875 733.100585938 744.494140625 692.154296875 749.275390625 c 0
 646.010742188 754.662109375 628.028320312 745.807617188 558.923828125 683.676757812 c 0
 514.984375 644.172851562 453.365234375 573.3984375 421.989257812 526.399414062 c 0
 390.612304688 479.401367188 327.088867188 364.8828125 280.823242188 271.915039062 c 0
 214.987304688 139.618164062 189.211914062 101.818359375 162.225585938 97.986328125 c 0
EndSplineSet
EndChar

StartChar: V
Encoding: 86 86 46
Width: 1380
Flags: W
HStem: 167.244 157.042<623.104 696.051> 530.652 106.529<152.075 386.6 604.174 729.243 946.498 1215.36>
VStem: 607.063 96.2109<182.122 317.066>
LayerCount: 2
Fore
SplineSet
1051.74707031 4.744140625 m 0
 1038.91210938 2.2158203125 1018.68066406 15.51171875 1006.78808594 34.2900390625 c 0
 994.896484375 53.0673828125 967.486328125 111.641601562 945.876953125 164.454101562 c 0
 924.266601562 217.267578125 893.552734375 300.494140625 877.622070312 349.404296875 c 0
 861.69140625 398.314453125 835.44140625 460.064453125 819.288085938 486.625976562 c 0
 789.918945312 534.918945312 789.918945312 534.918945312 661.9453125 530.65234375 c 0
 537.365234375 526.5 533.267578125 525.2109375 507.43359375 482.068359375 c 0
 492.837890625 457.693359375 471.923828125 417.806640625 460.958007812 393.431640625 c 0
 449.991210938 369.056640625 429.354492188 319.19921875 415.096679688 282.63671875 c 0
 400.838867188 246.07421875 378.1328125 199.540039062 364.640625 179.227539062 c 0
 351.1484375 158.915039062 328.64453125 117.264648438 314.630859375 86.6728515625 c 0
 300.6171875 56.080078125 278.384765625 26.91796875 265.2265625 21.8681640625 c 0
 252.06640625 16.818359375 231.26953125 22.716796875 219.010742188 34.9755859375 c 0
 206.751953125 47.234375 199.045898438 69.7490234375 201.885742188 85.0078125 c 0
 204.725585938 100.265625 245.124023438 191.118164062 291.66015625 286.90234375 c 0
 338.1953125 382.685546875 380.376953125 477.416015625 385.395507812 497.413085938 c 0
 394.479492188 533.608398438 394.022460938 533.772460938 284.413085938 533.772460938 c 0
 191.396484375 533.772460938 169.958007812 538.577148438 146.29296875 564.727539062 c 0
 118.698242188 595.219726562 118.784179688 596.090820312 152.067382812 623.041992188 c 0
 177.908203125 643.966796875 202.202148438 648.737304688 255.348632812 643.326171875 c 0
 293.569335938 639.434570312 357.795898438 641.487304688 398.073242188 647.887695312 c 0
 471.305664062 659.525390625 471.305664062 659.525390625 553.1875 821.227539062 c 0
 598.221679688 910.163085938 646.403320312 989.671875 660.256835938 997.913085938 c 0
 679.606445312 1009.42480469 693.946289062 1004.91113281 722.12109375 978.44140625 c 0
 742.293945312 959.491210938 769.520507812 916.50390625 782.625976562 882.9140625 c 0
 795.731445312 849.323242188 819.577148438 791.92578125 835.616210938 755.36328125 c 0
 851.65625 718.80078125 870.307617188 678.915039062 877.064453125 666.727539062 c 0
 886.573242188 649.577148438 925.73046875 643.612304688 1050.27832031 640.340820312 c 0
 1170.87011719 637.172851562 1216.75878906 630.455078125 1233.36328125 613.53515625 c 0
 1253.09765625 593.428710938 1251.70605469 587.828125 1220.64746094 562.365234375 c 0
 1192.67578125 539.432617188 1162.61132812 533.772460938 1068.76367188 533.772460938 c 0
 984.337890625 533.772460938 949.629882812 528.236328125 944.125 513.890625 c 0
 939.928710938 502.955078125 967.685546875 414.873046875 1005.80664062 318.151367188 c 0
 1043.92773438 221.430664062 1082.33007812 123.845703125 1091.14355469 101.294921875 c 0
 1102.66796875 71.8125 1102.66308594 53.13671875 1091.12695312 34.8173828125 c 0
 1082.30273438 20.8056640625 1064.58203125 7.2724609375 1051.74707031 4.744140625 c 0
668.176757812 167.244140625 m 0
 655.055664062 164.715820312 632.827148438 180.188476562 618.779296875 201.627929688 c 0
 599.383789062 231.227539062 596.564453125 250.107421875 607.063476562 280.087890625 c 0
 615.466796875 304.08203125 633.802734375 321.418945312 653.807617188 324.286132812 c 0
 677.6015625 327.6953125 690.577148438 318.872070312 700.620117188 292.455078125 c 0
 708.262695312 272.353515625 709.45703125 236.9921875 703.274414062 213.874023438 c 0
 697.092773438 190.755859375 681.298828125 169.772460938 668.176757812 167.244140625 c 0
662.341796875 637.181640625 m 0
 690.038085938 637.181640625 720.348632812 646.396484375 729.696289062 657.66015625 c 0
 742.71875 673.3515625 740.155273438 694.776367188 718.728515625 749.323242188 c 0
 703.349609375 788.475585938 684.013671875 822.760742188 675.759765625 825.51171875 c 0
 667.505859375 828.262695312 656.185546875 811.943359375 650.603515625 789.24609375 c 0
 645.020507812 766.547851562 630.427734375 732.482421875 618.171875 713.544921875 c 0
 605.91796875 694.607421875 599.51171875 669.678710938 603.936523438 658.147460938 c 0
 608.70703125 645.71484375 632.479492188 637.181640625 662.341796875 637.181640625 c 0
EndSplineSet
EndChar

StartChar: W
Encoding: 87 87 47
Width: 1057
Flags: W
HStem: 264.421 142.666<769.649 860.888>
VStem: 135.083 115.706<196.129 842.654>
LayerCount: 2
Fore
SplineSet
189.59375 -60.5791015625 m 0
 178.515625 -60.5791015625 160.701171875 -50.03515625 150.005859375 -37.1474609375 c 0
 136.174804688 -20.482421875 131.865234375 140.754882812 135.083007812 521.193359375 c 0
 139.061523438 991.713867188 142.928710938 1058.19726562 167.21484375 1073.50976562 c 0
 182.399414062 1083.08398438 207.416015625 1086.0859375 222.806640625 1080.1796875 c 0
 247.90234375 1070.54980469 250.7890625 1013.27050781 250.7890625 524.958007812 c 0
 250.7890625 124.27734375 245.368164062 -24.947265625 230.262695312 -40.052734375 c 0
 218.973632812 -51.341796875 200.672851562 -60.5791015625 189.59375 -60.5791015625 c 0
815.262695312 264.420898438 m 0
 794.30859375 264.420898438 772.276367188 282.072265625 760.229492188 308.512695312 c 0
 745.658203125 340.494140625 745.234375 360.4609375 758.6875 381.209960938 c 0
 768.888671875 396.943359375 790.592773438 408.587890625 806.918945312 407.086914062 c 0
 823.24609375 405.586914062 848.5625 392.400390625 863.177734375 377.784179688 c 0
 884.75 356.212890625 886.030273438 343.043945312 869.979492188 307.815429688 c 0
 858.205078125 281.973632812 836.072265625 264.420898438 815.262695312 264.420898438 c 0
600.461914062 281.526367188 m 0
 588.112304688 281.526367188 557.8984375 310.391601562 533.317382812 345.670898438 c 0
 508.73828125 380.950195312 449.989257812 469.588867188 402.763671875 542.645507812 c 0
 349.787109375 624.600585938 318.98046875 690.115234375 322.33203125 713.698242188 c 0
 325.731445312 737.625976562 341.594726562 753.891601562 364.745117188 757.189453125 c 0
 392.4296875 761.133789062 416.08203125 741.875976562 458.82421875 680.5859375 c 0
 490.227539062 635.555664062 519.76953125 590.68359375 524.473632812 580.868164062 c 0
 529.177734375 571.053710938 556.98828125 528.551757812 586.274414062 486.418945312 c 0
 615.561523438 444.287109375 645.0625 392.127929688 651.833007812 370.508789062 c 0
 659.1328125 347.198242188 655.752929688 321.091796875 643.528320312 306.36328125 c 0
 632.19140625 292.703125 612.811523438 281.526367188 600.461914062 281.526367188 c 0
EndSplineSet
EndChar

StartChar: X
Encoding: 88 88 48
Width: 1398
Flags: W
HStem: 102.021 142.118<621.073 684.527> 837.374 118.182<709.24 779.84>
VStem: 606.983 97.1074<128.083 232.392> 703.393 92.6172<853.545 939.384>
LayerCount: 2
Fore
SplineSet
177.659179688 69.349609375 m 0xc0
 166.177734375 64.994140625 149.439453125 70.279296875 140.463867188 81.0947265625 c 0
 131.48828125 91.91015625 126.140625 111.122070312 128.580078125 123.7890625 c 0
 131.01953125 136.456054688 209.802734375 204.346679688 303.654296875 274.657226562 c 0
 397.505859375 344.967773438 499.40625 421.259765625 530.100585938 444.1953125 c 0
 560.795898438 467.129882812 585.909179688 495.934570312 585.909179688 508.205078125 c 0
 585.909179688 520.475585938 528.950195312 586.262695312 459.334960938 654.399414062 c 0
 389.71875 722.53515625 297.029296875 815.3828125 253.359375 860.727539062 c 0
 181.469726562 935.372070312 175.893554688 945.106445312 194.415039062 963.627929688 c 0
 205.666015625 974.879882812 226.791992188 982.09765625 241.361328125 979.668945312 c 0
 255.930664062 977.240234375 358.192382812 887.504882812 468.610351562 780.256835938 c 0
 579.02734375 673.009765625 676.765625 582.423828125 685.806640625 578.954101562 c 0
 694.846679688 575.484375 742.545898438 606.163085938 791.803710938 647.12890625 c 0
 841.061523438 688.094726562 916.818359375 745.735351562 960.151367188 775.21875 c 0
 1003.48535156 804.703125 1065.53027344 852.025390625 1098.03027344 880.37890625 c 0
 1130.53027344 908.733398438 1174.41992188 940.896484375 1195.56347656 951.852539062 c 0
 1230.95800781 970.193359375 1235.40429688 969.858398438 1251.66113281 947.625976562 c 0
 1261.37207031 934.346679688 1266.12792969 914.447265625 1262.22949219 903.407226562 c 0
 1258.33105469 892.366210938 1237.87988281 868.560546875 1216.78125 850.504882812 c 0
 1195.68261719 832.44921875 1142.09179688 791.0859375 1097.68945312 758.5859375 c 0
 1053.28808594 726.0859375 989.404296875 676.309570312 955.7265625 647.97265625 c 0
 922.049804688 619.635742188 876.122070312 585.565429688 853.666015625 572.260742188 c 0
 831.2109375 558.95703125 802.364257812 536.499023438 789.563476562 522.353515625 c 0
 766.916015625 497.329101562 770.493164062 492.375 922.311523438 338.4609375 c 0
 1022.8359375 236.548828125 1078.33300781 170.37890625 1078.33300781 152.432617188 c 0
 1078.33300781 137.11328125 1068.12695312 118.141601562 1055.65234375 110.272460938 c 0
 1036.95703125 98.4794921875 1022.109375 106.3046875 971.159179688 154.80078125 c 0
 937.163085938 187.16015625 862.279296875 262.38671875 804.750976562 321.969726562 c 0
 747.22265625 381.552734375 691.478515625 430.302734375 680.875976562 430.302734375 c 0
 670.2734375 430.302734375 642.766601562 414.052734375 619.75 394.192382812 c 0
 596.733398438 374.331054688 526.380859375 319.671875 463.412109375 272.727539062 c 0
 400.442382812 225.783203125 326.903320312 170.942382812 299.991210938 150.859375 c 0
 273.079101562 130.776367188 239.2421875 106.002929688 224.797851562 95.806640625 c 0
 210.353515625 85.6103515625 189.141601562 73.705078125 177.659179688 69.349609375 c 0xc0
657.971679688 102.020507812 m 0
 647.559570312 102.020507812 629.060546875 117.250976562 616.86328125 135.866210938 c 0
 600.114257812 161.427734375 597.696289062 178.270507812 606.983398438 204.677734375 c 0
 613.74609375 223.909179688 629.783203125 241.666015625 642.619140625 244.138671875 c 0
 655.456054688 246.610351562 674.538085938 241.512695312 685.024414062 232.809570312 c 0
 695.510742188 224.106445312 704.090820312 202.548828125 704.090820312 184.90234375 c 0xe0
 704.090820312 167.256835938 697.973632812 141.389648438 690.497070312 127.419921875 c 0
 683.021484375 113.450195312 668.384765625 102.020507812 657.971679688 102.020507812 c 0
749.458984375 837.374023438 m 0
 741.189453125 837.374023438 724.4765625 848.365234375 712.318359375 861.799804688 c 0
 694.940429688 881.002929688 693.03125 893.638671875 703.392578125 920.890625 c 0
 710.991210938 940.876953125 726.71875 955.555664062 740.533203125 955.555664062 c 0
 753.711914062 955.555664062 771.5859375 948.46484375 780.252929688 939.797851562 c 0
 788.918945312 931.130859375 796.009765625 911.630859375 796.009765625 896.46484375 c 0xd0
 796.009765625 881.297851562 788.918945312 861.797851562 780.252929688 853.130859375 c 0
 771.5859375 844.46484375 757.728515625 837.374023438 749.458984375 837.374023438 c 0
EndSplineSet
EndChar

StartChar: Y
Encoding: 89 89 49
Width: 1088
Flags: W
HStem: 482.748 113.256<301.326 436.12> 504.333 117.654<753.014 871.186> 1065 20G<546.667 598.667> 1065 20G<546.667 598.667>
VStem: 515.941 113.368<483.965 1081.06>
LayerCount: 2
Fore
SplineSet
208.125976562 -15.6669921875 m 0x28
 196.458007812 -15.6669921875 177.512695312 -4.341796875 166.024414062 9.5009765625 c 0
 154.536132812 23.3427734375 147.731445312 45.349609375 150.90234375 58.4052734375 c 0
 154.072265625 71.4599609375 176.166992188 106.500976562 200 136.272460938 c 0
 223.833007812 166.044921875 303.607421875 254.140625 377.274414062 332.0390625 c 0
 511.216796875 473.674804688 511.216796875 473.674804688 515.94140625 779.336914062 c 0
 520.666992188 1085 520.666992188 1085 572.666992188 1085 c 0
 624.666992188 1085 624.666992188 1085 629.309570312 799 c 0
 633.953125 513 633.953125 513 698.022460938 417.666992188 c 0
 733.26171875 365.233398438 799.813476562 276.33203125 845.916992188 220.109375 c 0
 899.000976562 155.372070312 927.83203125 104.521484375 924.537109375 81.4423828125 c 0
 921.021484375 56.8232421875 904.708007812 43.3017578125 874.25390625 39.7646484375 c 0
 840.616210938 35.8583984375 816.418945312 49.62109375 778.920898438 93.9853515625 c 0
 751.280273438 126.685546875 698.94921875 197.291015625 662.626953125 250.88671875 c 0
 626.305664062 304.482421875 589.903320312 348.333007812 581.734375 348.333007812 c 0
 573.56640625 348.333007812 490.935546875 266.43359375 398.111328125 166.333007812 c 0
 305.287109375 66.2333984375 219.793945312 -15.6669921875 208.125976562 -15.6669921875 c 0x28
464.245117188 539 m 2
 433.267578125 501.674804688 405.229492188 487.198242188 381.951171875 482.748046875 c 0
 358.672851562 478.298828125 321.930664062 483.48046875 300.30078125 494.263671875 c 0
 278.670898438 505.047851562 258.38671875 527.301757812 255.225585938 543.717773438 c 0
 251.638671875 562.346679688 264.94140625 579.4453125 290.616210938 589.206054688 c 0
 313.2421875 597.80859375 352.571289062 600.868164062 378.014648438 596.00390625 c 0x88
 403.458007812 591.140625 433.267578125 576.325195312 444.259765625 563.081054688 c 2
 464.245117188 539 l 2
805.512695312 504.333007812 m 0x48
 773.420898438 504.333007812 749.421875 515.166992188 742.697265625 532.689453125 c 0
 736.712890625 548.28515625 739.704101562 573.634765625 749.344726562 589.022460938 c 0
 758.985351562 604.41015625 781.733398438 619.244140625 799.895507812 621.987304688 c 0
 818.057617188 624.73046875 847.499023438 616.313476562 865.3203125 603.282226562 c 0
 892.28125 583.567382812 894.340820312 573.270507812 877.584960938 541.9609375 c 0
 863.797851562 516.19921875 841.069335938 504.333007812 805.512695312 504.333007812 c 0x48
EndSplineSet
EndChar

StartChar: Z
Encoding: 90 90 50
Width: 1226
Flags: W
HStem: -23.4307 133.468<400.567 833.863> 960.205 131.642<394.317 843.006>
VStem: 152.842 128.091<349.554 788.718> 974.836 125.529<240.725 816.724>
LayerCount: 2
Fore
SplineSet
614.0234375 -23.4306640625 m 0
 305.840820312 -22.7548828125 150.077148438 -16.0576171875 139.45703125 -3.02734375 c 0
 130.22265625 8.3037109375 130.984375 79.3173828125 141.2890625 167.739257812 c 0
 150.9921875 250.993164062 156.190429688 487.396484375 152.841796875 693.080078125 c 0
 146.75390625 1067.05175781 146.75390625 1067.05175781 244.698242188 1079.70507812 c 0
 298.568359375 1086.66503906 500.131835938 1092.12890625 692.616210938 1091.84667969 c 0
 935.791992188 1091.49023438 1051.49902344 1084.81933594 1071.78613281 1069.984375 c 0
 1097.72460938 1051.01855469 1100.91503906 990.1328125 1100.36523438 524.615234375 c 0
 1100.02441406 236.404296875 1093.67871094 -5.037109375 1086.26367188 -11.9208984375 c 0
 1078.84765625 -18.8046875 866.33984375 -23.984375 614.0234375 -23.4306640625 c 0
823.465820312 106.856445312 m 0
 833.259765625 108.169921875 840.302734375 121.555664062 839.115234375 136.603515625 c 0
 837.927734375 151.651367188 790.946289062 220.908203125 734.711914062 290.508789062 c 0
 678.477539062 360.109375 626.434570312 417.0546875 619.060546875 417.0546875 c 0
 611.6875 417.0546875 555.46484375 356.37890625 494.122070312 282.21875 c 0
 428.749023438 203.186523438 389.165039062 140.807617188 398.478515625 131.494140625 c 0
 407.216796875 122.754882812 502.407226562 113.099609375 610.012695312 110.037109375 c 0
 717.6171875 106.974609375 813.671875 105.543945312 823.465820312 106.856445312 c 0
960.915039062 238.97265625 m 0
 968.571289062 238.97265625 974.8359375 371.866210938 974.8359375 534.291992188 c 0
 974.8359375 696.717773438 968.139648438 826.940429688 959.956054688 823.67578125 c 0
 951.772460938 820.411132812 895.142578125 759.45703125 834.11328125 688.221679688 c 0
 763.412109375 605.698242188 725.1953125 546.05078125 728.787109375 523.83203125 c 0
 731.887695312 504.65234375 782.252929688 432.712890625 840.709960938 363.966796875 c 0
 899.166015625 295.219726562 953.258789062 238.97265625 960.915039062 238.97265625 c 0
396.5390625 373.36328125 m 0
 449.752929688 431.674804688 498.484375 498.03125 504.831054688 520.82421875 c 0
 513.807617188 553.0546875 502.176757812 576.799804688 452.497070312 627.677734375 c 0
 417.365234375 663.655273438 368.487304688 720.381835938 343.877929688 753.73828125 c 0
 313.322265625 795.154296875 296.541992188 806.446289062 290.958984375 789.349609375 c 0
 286.461914062 775.580078125 281.950195312 664.635742188 280.932617188 542.805664062 c 0
 279.9140625 420.975585938 283.740234375 309.157226562 289.43359375 294.319335938 c 0
 297.06640625 274.430664062 325.206054688 295.197265625 396.5390625 373.36328125 c 0
617.418945312 648.561523438 m 0
 625.678710938 648.561523438 679.426757812 705.798828125 736.856445312 775.755859375 c 0
 794.286132812 845.711914062 843.57421875 915.83203125 846.384765625 931.577148438 c 0
 850.866210938 956.676757812 822.799804688 960.205078125 618.680664062 960.205078125 c 0
 414.721679688 960.205078125 386.497070312 956.663085938 390.966796875 931.624023438 c 0
 393.772460938 915.904296875 442.493164062 845.78515625 499.233398438 775.802734375 c 0
 555.973632812 705.8203125 609.157226562 648.561523438 617.418945312 648.561523438 c 0
EndSplineSet
EndChar

StartChar: percent
Encoding: 37 37 52
Width: 1499
Flags: W
HStem: -200 73.1035<630.562 929.895> 416.739 66.5215<655.825 848.175> 1026.81 73.1914<630.562 930.583>
VStem: 102.034 73.1162<271.929 628.014> 423.1 179.939<10.9059 856.729 856.734 889.091> 1328.52 73.5117<272.241 628.052>
LayerCount: 2
Fore
SplineSet
655.825195312 416.739257812 m 1
 655.825195312 483.260742188 l 1
 848.174804688 483.260742188 l 1
 848.174804688 416.739257812 l 1
 655.825195312 416.739257812 l 1
752.034179688 1100 m 0
 1110.77929688 1100 1402.03417969 808.745117188 1402.03417969 450 c 0
 1402.03417969 91.2548828125 1110.77929688 -200 752.034179688 -200 c 0
 393.2890625 -200 102.034179688 91.2548828125 102.034179688 450 c 0
 102.034179688 808.745117188 393.2890625 1100 752.034179688 1100 c 0
423.099609375 43.271484375 m 2
 423.099609375 856.728515625 l 1
 423.0859375 856.734375 l 2
 423.0859375 874.737304688 408.46875 889.353515625 390.465820312 889.353515625 c 0
 382.14453125 889.353515625 374.547851562 886.231445312 368.782226562 881.095703125 c 0
 360.388671875 873.614257812 352.184570312 865.868164062 344.16796875 857.857421875 c 0
 239.762695312 753.44921875 175.150390625 609.087890625 175.150390625 449.916015625 c 0
 175.150390625 290.743164062 239.762695312 146.54296875 344.16796875 42.1337890625 c 0
 352.184570312 34.1171875 360.388671875 26.37109375 368.782226562 18.896484375 c 0
 374.546875 13.7666015625 382.155273438 10.6435546875 390.471679688 10.6435546875 c 0
 408.479492188 10.6435546875 423.099609375 25.263671875 423.099609375 43.271484375 c 2
1159.89257812 42.1337890625 m 1
 1159.875 42.125 l 1
 1264.29003906 146.694335938 1328.52246094 291.579101562 1328.52246094 450.881835938 c 0
 1328.52246094 535.119140625 1310.45800781 615.169921875 1277.99511719 687.370117188 c 0
 1272.87695312 698.693359375 1261.50878906 706.569335938 1248.28320312 706.569335938 c 0
 1234.37695312 706.569335938 1222.49121094 697.848632812 1217.80175781 685.58203125 c 2
 1006.15820312 132.107421875 l 1
 793.942382812 132.107421875 l 1
 1039.12890625 770.885742188 l 1
 1165.77636719 770.885742188 l 2
 1165.79199219 770.885742188 1165.79882812 770.904296875 1165.81445312 770.904296875 c 0
 1183.81347656 770.904296875 1198.42578125 785.516601562 1198.42578125 803.514648438 c 0
 1198.42578125 811.610351562 1195.46972656 819.021484375 1190.57910156 824.724609375 c 0
 1180.82910156 836.111328125 1170.60058594 847.158203125 1159.89257812 857.866210938 c 0
 1056.08105469 962.245117188 912.32421875 1026.80859375 753.627929688 1026.80859375 c 0
 753.096679688 1026.80859375 752.565429688 1026.80761719 752.034179688 1026.80664062 c 0
 751.9375 1026.80664062 752.235351562 1026.79003906 752.137695312 1026.79003906 c 0
 709.78515625 1026.79003906 668.484375 1022.24902344 628.696289062 1013.62695312 c 0
 614.043945312 1010.42578125 603.0390625 997.366210938 603.0390625 981.758789062 c 2
 603.0390625 981.743164062 l 1
 603.0390625 -81.7509765625 l 2
 603.0390625 -81.7734375 603.060546875 -81.79296875 603.060546875 -81.814453125 c 0
 603.060546875 -97.4091796875 614.047851562 -110.458007812 628.696289062 -113.635742188 c 0
 668.47265625 -122.251953125 709.364257812 -126.806640625 751.703125 -126.806640625 c 0
 751.813476562 -126.806640625 751.923828125 -126.806640625 752.034179688 -126.806640625 c 0
 752.565429688 -126.807617188 753.137695312 -126.896484375 753.668945312 -126.896484375 c 0
 912.365234375 -126.896484375 1056.08105469 -62.2451171875 1159.89257812 42.1337890625 c 1
EndSplineSet
EndChar

StartChar: space
Encoding: 32 32 53
Width: 1499
Flags: W
HStem: -200 73.1035<630.562 929.895> 416.739 66.5215<655.825 848.175> 1026.81 73.1914<630.562 930.583>
VStem: 102.034 73.1162<271.929 628.014> 423.1 179.939<10.9059 856.729 856.734 889.091> 1328.52 73.5117<272.241 628.052>
LayerCount: 2
Fore
SplineSet
655.825195312 416.739257812 m 1
 655.825195312 483.260742188 l 1
 848.174804688 483.260742188 l 1
 848.174804688 416.739257812 l 1
 655.825195312 416.739257812 l 1
752.034179688 1100 m 0
 1110.77929688 1100 1402.03417969 808.745117188 1402.03417969 450 c 0
 1402.03417969 91.2548828125 1110.77929688 -200 752.034179688 -200 c 0
 393.2890625 -200 102.034179688 91.2548828125 102.034179688 450 c 0
 102.034179688 808.745117188 393.2890625 1100 752.034179688 1100 c 0
423.099609375 43.271484375 m 2
 423.099609375 856.728515625 l 1
 423.0859375 856.734375 l 2
 423.0859375 874.737304688 408.46875 889.353515625 390.465820312 889.353515625 c 0
 382.14453125 889.353515625 374.547851562 886.231445312 368.782226562 881.095703125 c 0
 360.388671875 873.614257812 352.184570312 865.868164062 344.16796875 857.857421875 c 0
 239.762695312 753.44921875 175.150390625 609.087890625 175.150390625 449.916015625 c 0
 175.150390625 290.743164062 239.762695312 146.54296875 344.16796875 42.1337890625 c 0
 352.184570312 34.1171875 360.388671875 26.37109375 368.782226562 18.896484375 c 0
 374.546875 13.7666015625 382.155273438 10.6435546875 390.471679688 10.6435546875 c 0
 408.479492188 10.6435546875 423.099609375 25.263671875 423.099609375 43.271484375 c 2
1159.89257812 42.1337890625 m 1
 1159.875 42.125 l 1
 1264.29003906 146.694335938 1328.52246094 291.579101562 1328.52246094 450.881835938 c 0
 1328.52246094 535.119140625 1310.45800781 615.169921875 1277.99511719 687.370117188 c 0
 1272.87695312 698.693359375 1261.50878906 706.569335938 1248.28320312 706.569335938 c 0
 1234.37695312 706.569335938 1222.49121094 697.848632812 1217.80175781 685.58203125 c 2
 1006.15820312 132.107421875 l 1
 793.942382812 132.107421875 l 1
 1039.12890625 770.885742188 l 1
 1165.77636719 770.885742188 l 2
 1165.79199219 770.885742188 1165.79882812 770.904296875 1165.81445312 770.904296875 c 0
 1183.81347656 770.904296875 1198.42578125 785.516601562 1198.42578125 803.514648438 c 0
 1198.42578125 811.610351562 1195.46972656 819.021484375 1190.57910156 824.724609375 c 0
 1180.82910156 836.111328125 1170.60058594 847.158203125 1159.89257812 857.866210938 c 0
 1056.08105469 962.245117188 912.32421875 1026.80859375 753.627929688 1026.80859375 c 0
 753.096679688 1026.80859375 752.565429688 1026.80761719 752.034179688 1026.80664062 c 0
 751.9375 1026.80664062 752.235351562 1026.79003906 752.137695312 1026.79003906 c 0
 709.78515625 1026.79003906 668.484375 1022.24902344 628.696289062 1013.62695312 c 0
 614.043945312 1010.42578125 603.0390625 997.366210938 603.0390625 981.758789062 c 2
 603.0390625 981.743164062 l 1
 603.0390625 -81.7509765625 l 2
 603.0390625 -81.7734375 603.060546875 -81.79296875 603.060546875 -81.814453125 c 0
 603.060546875 -97.4091796875 614.047851562 -110.458007812 628.696289062 -113.635742188 c 0
 668.47265625 -122.251953125 709.364257812 -126.806640625 751.703125 -126.806640625 c 0
 751.813476562 -126.806640625 751.923828125 -126.806640625 752.034179688 -126.806640625 c 0
 752.565429688 -126.807617188 753.137695312 -126.896484375 753.668945312 -126.896484375 c 0
 912.365234375 -126.896484375 1056.08105469 -62.2451171875 1159.89257812 42.1337890625 c 1
EndSplineSet
EndChar
